<?xml version="1.0" encoding="UTF-8" standalone="no"?><svg xmlns="http://www.w3.org/2000/svg" xmlns:xlink="http://www.w3.org/1999/xlink" contentScriptType="application/ecmascript" contentStyleType="text/css" height="213px" preserveAspectRatio="none" style="width:282px;height:213px;" version="1.1" viewBox="0 0 282 213" width="282px" zoomAndPan="magnify"><defs><filter height="300%" id="f17dri1d14oxc" width="300%" x="-1" y="-1"><feGaussianBlur result="blurOut" stdDeviation="2.0"/><feColorMatrix in="blurOut" result="blurOut2" type="matrix" values="0 0 0 0 0 0 0 0 0 0 0 0 0 0 0 0 0 0 .4 0"/><feOffset dx="4.0" dy="4.0" in="blurOut2" result="blurOut3"/><feBlend in="SourceGraphic" in2="blurOut3" mode="normal"/></filter></defs><g><!--MD5=[e8c71418ed1b1200141cbb3be088da61]
class ColorsMagic--><rect fill="#FEFECE" filter="url(#f17dri1d14oxc)" height="86.4141" id="ColorsMagic" style="stroke: #A80036; stroke-width: 1.5;" width="265" x="6" y="116"/><ellipse cx="96.75" cy="132" fill="#ADD1B2" rx="11" ry="11" style="stroke: #A80036; stroke-width: 1.0;"/><path d="M99.7188,137.6406 Q99.1406,137.9375 98.5,138.0781 Q97.8594,138.2344 97.1563,138.2344 Q94.6563,138.2344 93.3281,136.5938 Q92.0156,134.9375 92.0156,131.8125 Q92.0156,128.6875 93.3281,127.0313 Q94.6563,125.375 97.1563,125.375 Q97.8594,125.375 98.5,125.5313 Q99.1563,125.6875 99.7188,125.9844 L99.7188,128.7031 Q99.0938,128.125 98.5,127.8594 Q97.9063,127.5781 97.2813,127.5781 Q95.9375,127.5781 95.25,128.6563 Q94.5625,129.7188 94.5625,131.8125 Q94.5625,133.9063 95.25,134.9844 Q95.9375,136.0469 97.2813,136.0469 Q97.9063,136.0469 98.5,135.7813 Q99.0938,135.5 99.7188,134.9219 L99.7188,137.6406 Z "/><text fill="#000000" font-family="sans-serif" font-size="12" lengthAdjust="spacingAndGlyphs" textLength="75" x="117.25" y="136.1543">ColorsMagic</text><line style="stroke: #A80036; stroke-width: 1.5;" x1="7" x2="270" y1="148" y2="148"/><line style="stroke: #A80036; stroke-width: 1.5;" x1="7" x2="270" y1="156" y2="156"/><text fill="#000000" font-family="sans-serif" font-size="11" lengthAdjust="spacingAndGlyphs" textLength="71" x="26" y="170.2104">Start() : void</text><text fill="#000000" font-family="sans-serif" font-size="11" lengthAdjust="spacingAndGlyphs" textLength="83" x="26" y="183.0151">Update() : void</text><ellipse cx="17" cy="192.6094" fill="#84BE84" rx="3" ry="3" style="stroke: #038048; stroke-width: 1.0;"/><text fill="#000000" font-family="sans-serif" font-size="11" lengthAdjust="spacingAndGlyphs" textLength="239" x="26" y="195.8198">ChangeToScene(sceneName:string) : void</text><!--MD5=[83b3cf3d23d77c6f1e1b5291a241bc2a]
class MonoBehaviour--><rect fill="#FEFECE" filter="url(#f17dri1d14oxc)" height="48" id="MonoBehaviour" style="stroke: #A80036; stroke-width: 1.5;" width="128" x="74.5" y="8"/><ellipse cx="89.5" cy="24" fill="#ADD1B2" rx="11" ry="11" style="stroke: #A80036; stroke-width: 1.0;"/><path d="M92.4688,29.6406 Q91.8906,29.9375 91.25,30.0781 Q90.6094,30.2344 89.9063,30.2344 Q87.4063,30.2344 86.0781,28.5938 Q84.7656,26.9375 84.7656,23.8125 Q84.7656,20.6875 86.0781,19.0313 Q87.4063,17.375 89.9063,17.375 Q90.6094,17.375 91.25,17.5313 Q91.9063,17.6875 92.4688,17.9844 L92.4688,20.7031 Q91.8438,20.125 91.25,19.8594 Q90.6563,19.5781 90.0313,19.5781 Q88.6875,19.5781 88,20.6563 Q87.3125,21.7188 87.3125,23.8125 Q87.3125,25.9063 88,26.9844 Q88.6875,28.0469 90.0313,28.0469 Q90.6563,28.0469 91.25,27.7813 Q91.8438,27.5 92.4688,26.9219 L92.4688,29.6406 Z "/><text fill="#000000" font-family="sans-serif" font-size="12" lengthAdjust="spacingAndGlyphs" textLength="96" x="103.5" y="28.1543">MonoBehaviour</text><line style="stroke: #A80036; stroke-width: 1.5;" x1="75.5" x2="201.5" y1="40" y2="40"/><line style="stroke: #A80036; stroke-width: 1.5;" x1="75.5" x2="201.5" y1="48" y2="48"/><!--MD5=[b3131670db504baf268ce52ee146d11a]
reverse link MonoBehaviour to ColorsMagic--><path d="M138.5,76.27 C138.5,89.12 138.5,103.17 138.5,115.94 " fill="none" id="MonoBehaviour&lt;-ColorsMagic" style="stroke: #A80036; stroke-width: 1.0;"/><polygon fill="none" points="131.5,76.22,138.5,56.22,145.5,76.22,131.5,76.22" style="stroke: #A80036; stroke-width: 1.0;"/><!--MD5=[7591c9e072955af7f17cbb6fe2e89bd5]
@startuml
class ColorsMagic {
    Start() : void
    Update() : void
    + ChangeToScene(sceneName:string) : void
}
MonoBehaviour <|- - ColorsMagic
@enduml

PlantUML version 1.2020.02(Sun Mar 01 10:22:07 GMT 2020)
(GPL source distribution)
Java Runtime: OpenJDK Runtime Environment
JVM: OpenJDK 64-Bit Server VM
Java Version: 11.0.9+11-Ubuntu-0ubuntu1
Operating System: Linux
Default Encoding: ANSI_X3.4-1968
Language: en
Country: US
--></g></svg>