<?xml version="1.0" encoding="UTF-8" standalone="no"?><svg xmlns="http://www.w3.org/2000/svg" xmlns:xlink="http://www.w3.org/1999/xlink" contentScriptType="application/ecmascript" contentStyleType="text/css" height="200px" preserveAspectRatio="none" style="width:278px;height:200px;" version="1.1" viewBox="0 0 278 200" width="278px" zoomAndPan="magnify"><defs><filter height="300%" id="f1csp3q3u6n8ls" width="300%" x="-1" y="-1"><feGaussianBlur result="blurOut" stdDeviation="2.0"/><feColorMatrix in="blurOut" result="blurOut2" type="matrix" values="0 0 0 0 0 0 0 0 0 0 0 0 0 0 0 0 0 0 .4 0"/><feOffset dx="4.0" dy="4.0" in="blurOut2" result="blurOut3"/><feBlend in="SourceGraphic" in2="blurOut3" mode="normal"/></filter></defs><g><!--MD5=[090d40b761b4384c020c270098e3857d]
class SpalshScreenManager--><rect fill="#FEFECE" filter="url(#f1csp3q3u6n8ls)" height="73.6094" id="SpalshScreenManager" style="stroke: #A80036; stroke-width: 1.5;" width="261" x="6" y="116"/><ellipse cx="61.75" cy="132" fill="#ADD1B2" rx="11" ry="11" style="stroke: #A80036; stroke-width: 1.0;"/><path d="M64.7188,137.6406 Q64.1406,137.9375 63.5,138.0781 Q62.8594,138.2344 62.1563,138.2344 Q59.6563,138.2344 58.3281,136.5938 Q57.0156,134.9375 57.0156,131.8125 Q57.0156,128.6875 58.3281,127.0313 Q59.6563,125.375 62.1563,125.375 Q62.8594,125.375 63.5,125.5313 Q64.1563,125.6875 64.7188,125.9844 L64.7188,128.7031 Q64.0938,128.125 63.5,127.8594 Q62.9063,127.5781 62.2813,127.5781 Q60.9375,127.5781 60.25,128.6563 Q59.5625,129.7188 59.5625,131.8125 Q59.5625,133.9063 60.25,134.9844 Q60.9375,136.0469 62.2813,136.0469 Q62.9063,136.0469 63.5,135.7813 Q64.0938,135.5 64.7188,134.9219 L64.7188,137.6406 Z "/><text fill="#000000" font-family="sans-serif" font-size="12" lengthAdjust="spacingAndGlyphs" textLength="141" x="82.25" y="136.1543">SpalshScreenManager</text><line style="stroke: #A80036; stroke-width: 1.5;" x1="7" x2="266" y1="148" y2="148"/><line style="stroke: #A80036; stroke-width: 1.5;" x1="7" x2="266" y1="156" y2="156"/><rect fill="#F24D5C" height="6" style="stroke: #C82930; stroke-width: 1.0;" width="6" x="14" y="164"/><text fill="#000000" font-family="sans-serif" font-size="11" lengthAdjust="spacingAndGlyphs" textLength="71" x="26" y="170.2104">Start() : void</text><rect fill="#F24D5C" height="6" style="stroke: #C82930; stroke-width: 1.0;" width="6" x="14" y="176.8047"/><text fill="#000000" font-family="sans-serif" font-size="11" lengthAdjust="spacingAndGlyphs" textLength="235" x="26" y="183.0151">LoadNextSceneAfterDelay() : IEnumerator</text><!--MD5=[83b3cf3d23d77c6f1e1b5291a241bc2a]
class MonoBehaviour--><rect fill="#FEFECE" filter="url(#f1csp3q3u6n8ls)" height="48" id="MonoBehaviour" style="stroke: #A80036; stroke-width: 1.5;" width="128" x="72.5" y="8"/><ellipse cx="87.5" cy="24" fill="#ADD1B2" rx="11" ry="11" style="stroke: #A80036; stroke-width: 1.0;"/><path d="M90.4688,29.6406 Q89.8906,29.9375 89.25,30.0781 Q88.6094,30.2344 87.9063,30.2344 Q85.4063,30.2344 84.0781,28.5938 Q82.7656,26.9375 82.7656,23.8125 Q82.7656,20.6875 84.0781,19.0313 Q85.4063,17.375 87.9063,17.375 Q88.6094,17.375 89.25,17.5313 Q89.9063,17.6875 90.4688,17.9844 L90.4688,20.7031 Q89.8438,20.125 89.25,19.8594 Q88.6563,19.5781 88.0313,19.5781 Q86.6875,19.5781 86,20.6563 Q85.3125,21.7188 85.3125,23.8125 Q85.3125,25.9063 86,26.9844 Q86.6875,28.0469 88.0313,28.0469 Q88.6563,28.0469 89.25,27.7813 Q89.8438,27.5 90.4688,26.9219 L90.4688,29.6406 Z "/><text fill="#000000" font-family="sans-serif" font-size="12" lengthAdjust="spacingAndGlyphs" textLength="96" x="101.5" y="28.1543">MonoBehaviour</text><line style="stroke: #A80036; stroke-width: 1.5;" x1="73.5" x2="199.5" y1="40" y2="40"/><line style="stroke: #A80036; stroke-width: 1.5;" x1="73.5" x2="199.5" y1="48" y2="48"/><!--MD5=[355856a9bf99314a6aafee57d0dc78c8]
reverse link MonoBehaviour to SpalshScreenManager--><path d="M136.5,76.43 C136.5,89.33 136.5,103.32 136.5,115.71 " fill="none" id="MonoBehaviour&lt;-SpalshScreenManager" style="stroke: #A80036; stroke-width: 1.0;"/><polygon fill="none" points="129.5,76.23,136.5,56.23,143.5,76.23,129.5,76.23" style="stroke: #A80036; stroke-width: 1.0;"/><!--MD5=[a3a1339b834203e6172376fe27d4ff61]
@startuml
class SpalshScreenManager {
    - Start() : void
    - LoadNextSceneAfterDelay() : IEnumerator
}
MonoBehaviour <|- - SpalshScreenManager
@enduml

PlantUML version 1.2020.02(Sun Mar 01 10:22:07 GMT 2020)
(GPL source distribution)
Java Runtime: OpenJDK Runtime Environment
JVM: OpenJDK 64-Bit Server VM
Java Version: 11.0.9+11-Ubuntu-0ubuntu1
Operating System: Linux
Default Encoding: ANSI_X3.4-1968
Language: en
Country: US
--></g></svg>