<?xml version="1.0" encoding="UTF-8" standalone="no"?><svg xmlns="http://www.w3.org/2000/svg" xmlns:xlink="http://www.w3.org/1999/xlink" contentScriptType="application/ecmascript" contentStyleType="text/css" height="213px" preserveAspectRatio="none" style="width:578px;height:213px;" version="1.1" viewBox="0 0 578 213" width="578px" zoomAndPan="magnify"><defs><filter height="300%" id="f1mqldnzcd655g" width="300%" x="-1" y="-1"><feGaussianBlur result="blurOut" stdDeviation="2.0"/><feColorMatrix in="blurOut" result="blurOut2" type="matrix" values="0 0 0 0 0 0 0 0 0 0 0 0 0 0 0 0 0 0 .4 0"/><feOffset dx="4.0" dy="4.0" in="blurOut2" result="blurOut3"/><feBlend in="SourceGraphic" in2="blurOut3" mode="normal"/></filter></defs><g><!--MD5=[e8c71418ed1b1200141cbb3be088da61]
class ColorsMagic--><rect fill="#FEFECE" filter="url(#f1mqldnzcd655g)" height="86.4141" id="ColorsMagic" style="stroke: #A80036; stroke-width: 1.5;" width="265" x="6" y="116"/><ellipse cx="96.75" cy="132" fill="#ADD1B2" rx="11" ry="11" style="stroke: #A80036; stroke-width: 1.0;"/><path d="M99.7188,137.6406 Q99.1406,137.9375 98.5,138.0781 Q97.8594,138.2344 97.1563,138.2344 Q94.6563,138.2344 93.3281,136.5938 Q92.0156,134.9375 92.0156,131.8125 Q92.0156,128.6875 93.3281,127.0313 Q94.6563,125.375 97.1563,125.375 Q97.8594,125.375 98.5,125.5313 Q99.1563,125.6875 99.7188,125.9844 L99.7188,128.7031 Q99.0938,128.125 98.5,127.8594 Q97.9063,127.5781 97.2813,127.5781 Q95.9375,127.5781 95.25,128.6563 Q94.5625,129.7188 94.5625,131.8125 Q94.5625,133.9063 95.25,134.9844 Q95.9375,136.0469 97.2813,136.0469 Q97.9063,136.0469 98.5,135.7813 Q99.0938,135.5 99.7188,134.9219 L99.7188,137.6406 Z "/><text fill="#000000" font-family="sans-serif" font-size="12" lengthAdjust="spacingAndGlyphs" textLength="75" x="117.25" y="136.1543">ColorsMagic</text><line style="stroke: #A80036; stroke-width: 1.5;" x1="7" x2="270" y1="148" y2="148"/><line style="stroke: #A80036; stroke-width: 1.5;" x1="7" x2="270" y1="156" y2="156"/><text fill="#000000" font-family="sans-serif" font-size="11" lengthAdjust="spacingAndGlyphs" textLength="71" x="26" y="170.2104">Start() : void</text><text fill="#000000" font-family="sans-serif" font-size="11" lengthAdjust="spacingAndGlyphs" textLength="83" x="26" y="183.0151">Update() : void</text><ellipse cx="17" cy="192.6094" fill="#84BE84" rx="3" ry="3" style="stroke: #038048; stroke-width: 1.0;"/><text fill="#000000" font-family="sans-serif" font-size="11" lengthAdjust="spacingAndGlyphs" textLength="239" x="26" y="195.8198">ChangeToScene(sceneName:string) : void</text><!--MD5=[83b3cf3d23d77c6f1e1b5291a241bc2a]
class MonoBehaviour--><rect fill="#FEFECE" filter="url(#f1mqldnzcd655g)" height="48" id="MonoBehaviour" style="stroke: #A80036; stroke-width: 1.5;" width="128" x="223.5" y="8"/><ellipse cx="238.5" cy="24" fill="#ADD1B2" rx="11" ry="11" style="stroke: #A80036; stroke-width: 1.0;"/><path d="M241.4688,29.6406 Q240.8906,29.9375 240.25,30.0781 Q239.6094,30.2344 238.9063,30.2344 Q236.4063,30.2344 235.0781,28.5938 Q233.7656,26.9375 233.7656,23.8125 Q233.7656,20.6875 235.0781,19.0313 Q236.4063,17.375 238.9063,17.375 Q239.6094,17.375 240.25,17.5313 Q240.9063,17.6875 241.4688,17.9844 L241.4688,20.7031 Q240.8438,20.125 240.25,19.8594 Q239.6563,19.5781 239.0313,19.5781 Q237.6875,19.5781 237,20.6563 Q236.3125,21.7188 236.3125,23.8125 Q236.3125,25.9063 237,26.9844 Q237.6875,28.0469 239.0313,28.0469 Q239.6563,28.0469 240.25,27.7813 Q240.8438,27.5 241.4688,26.9219 L241.4688,29.6406 Z "/><text fill="#000000" font-family="sans-serif" font-size="12" lengthAdjust="spacingAndGlyphs" textLength="96" x="252.5" y="28.1543">MonoBehaviour</text><line style="stroke: #A80036; stroke-width: 1.5;" x1="224.5" x2="350.5" y1="40" y2="40"/><line style="stroke: #A80036; stroke-width: 1.5;" x1="224.5" x2="350.5" y1="48" y2="48"/><!--MD5=[090d40b761b4384c020c270098e3857d]
class SpalshScreenManager--><rect fill="#FEFECE" filter="url(#f1mqldnzcd655g)" height="73.6094" id="SpalshScreenManager" style="stroke: #A80036; stroke-width: 1.5;" width="261" x="306" y="122"/><ellipse cx="361.75" cy="138" fill="#ADD1B2" rx="11" ry="11" style="stroke: #A80036; stroke-width: 1.0;"/><path d="M364.7188,143.6406 Q364.1406,143.9375 363.5,144.0781 Q362.8594,144.2344 362.1563,144.2344 Q359.6563,144.2344 358.3281,142.5938 Q357.0156,140.9375 357.0156,137.8125 Q357.0156,134.6875 358.3281,133.0313 Q359.6563,131.375 362.1563,131.375 Q362.8594,131.375 363.5,131.5313 Q364.1563,131.6875 364.7188,131.9844 L364.7188,134.7031 Q364.0938,134.125 363.5,133.8594 Q362.9063,133.5781 362.2813,133.5781 Q360.9375,133.5781 360.25,134.6563 Q359.5625,135.7188 359.5625,137.8125 Q359.5625,139.9063 360.25,140.9844 Q360.9375,142.0469 362.2813,142.0469 Q362.9063,142.0469 363.5,141.7813 Q364.0938,141.5 364.7188,140.9219 L364.7188,143.6406 Z "/><text fill="#000000" font-family="sans-serif" font-size="12" lengthAdjust="spacingAndGlyphs" textLength="141" x="382.25" y="142.1543">SpalshScreenManager</text><line style="stroke: #A80036; stroke-width: 1.5;" x1="307" x2="566" y1="154" y2="154"/><line style="stroke: #A80036; stroke-width: 1.5;" x1="307" x2="566" y1="162" y2="162"/><rect fill="#F24D5C" height="6" style="stroke: #C82930; stroke-width: 1.0;" width="6" x="314" y="170"/><text fill="#000000" font-family="sans-serif" font-size="11" lengthAdjust="spacingAndGlyphs" textLength="71" x="326" y="176.2104">Start() : void</text><rect fill="#F24D5C" height="6" style="stroke: #C82930; stroke-width: 1.0;" width="6" x="314" y="182.8047"/><text fill="#000000" font-family="sans-serif" font-size="11" lengthAdjust="spacingAndGlyphs" textLength="235" x="326" y="189.0151">LoadNextSceneAfterDelay() : IEnumerator</text><!--MD5=[b3131670db504baf268ce52ee146d11a]
reverse link MonoBehaviour to ColorsMagic--><path d="M244.43,69.13 C226.99,83.76 206.74,100.75 188.64,115.94 " fill="none" id="MonoBehaviour&lt;-ColorsMagic" style="stroke: #A80036; stroke-width: 1.0;"/><polygon fill="none" points="240,63.71,259.82,56.22,249,74.44,240,63.71" style="stroke: #A80036; stroke-width: 1.0;"/><!--MD5=[355856a9bf99314a6aafee57d0dc78c8]
reverse link MonoBehaviour to SpalshScreenManager--><path d="M330.75,69.28 C350.47,85.82 373.76,105.36 393.45,121.89 " fill="none" id="MonoBehaviour&lt;-SpalshScreenManager" style="stroke: #A80036; stroke-width: 1.0;"/><polygon fill="none" points="326,74.44,315.18,56.22,335,63.71,326,74.44" style="stroke: #A80036; stroke-width: 1.0;"/><!--MD5=[176ba416f2c90ea446db59f7f31463a3]
@startuml
class ColorsMagic {
    Start() : void
    Update() : void
    + ChangeToScene(sceneName:string) : void
}
MonoBehaviour <|- - ColorsMagic
class SpalshScreenManager {
    - Start() : void
    - LoadNextSceneAfterDelay() : IEnumerator
}
MonoBehaviour <|- - SpalshScreenManager
@enduml

PlantUML version 1.2020.02(Sun Mar 01 10:22:07 GMT 2020)
(GPL source distribution)
Java Runtime: OpenJDK Runtime Environment
JVM: OpenJDK 64-Bit Server VM
Java Version: 11.0.9+11-Ubuntu-0ubuntu1
Operating System: Linux
Default Encoding: ANSI_X3.4-1968
Language: en
Country: US
--></g></svg>